<?xml version="1.0" standalone="no"?><!DOCTYPE svg PUBLIC "-//W3C//DTD SVG 1.1//EN" "http://www.w3.org/Graphics/SVG/1.1/DTD/svg11.dtd"><svg t="1547714895651" class="icon" style="" viewBox="0 0 1024 1024" version="1.1" xmlns="http://www.w3.org/2000/svg" p-id="2825" xmlns:xlink="http://www.w3.org/1999/xlink" width="16" height="16"><defs><style type="text/css"></style></defs><path d="M512 0c283.875556 0 512 228.124444 512 512s-228.124444 512-512 512-512-228.124444-512-512 228.124444-512 512-512z m0 977.464889c256 0 465.464889-209.464889 465.464889-465.464889S768 46.535111 512 46.535111 46.535111 256 46.535111 512 256 977.464889 512 977.464889z m219.363556-586.922667a27.306667 27.306667 0 1 1 39.139555 38.115556l-282.168889 290.133333c-20.48 20.48-50.972444 20.48-70.883555 0.568889L254.293333 566.044444a27.306667 27.306667 0 1 1 37.432889-39.822222l160.654222 151.096889 278.926223-286.72z" fill="" p-id="2826"></path></svg>